<?xml version="1.0" encoding="UTF-8"?>
<svg version="1.1" xmlns="http://www.w3.org/2000/svg" width="512" height="512">
<path d="M0 0 C5.51793994 5.16161541 10.38756747 12.05721131 10.73744202 19.8445282 C10.73522141 20.92152481 10.73300079 21.99852142 10.73071289 23.1081543 C10.73063736 24.32919357 10.73056183 25.55023285 10.73048401 26.80827332 C10.72532272 28.12709 10.72016144 29.44590668 10.71484375 30.8046875 C10.7129783 32.16803434 10.711555 33.53138186 10.71055603 34.89472961 C10.70674082 38.48025366 10.69691905 42.0657371 10.68585205 45.65124512 C10.67561651 49.31111095 10.67105382 52.97098335 10.66601562 56.63085938 C10.65529588 63.80991433 10.63823143 70.98893585 10.6171875 78.16796875 C11.38829361 78.15978622 12.15939972 78.1516037 12.95387268 78.14317322 C16.48875901 78.11044939 20.02361331 78.0902893 23.55859375 78.0703125 C25.37792419 78.05067444 25.37792419 78.05067444 27.23400879 78.03063965 C43.80674466 77.96047565 57.89264218 81.79723982 70.3671875 93.23046875 C84.59283943 108.4389839 86.08446222 125.06276175 85.8046875 144.91796875 C85.78960854 146.79035378 85.77592584 148.6627506 85.76367188 150.53515625 C85.73093189 155.07972309 85.67932845 159.62371274 85.6171875 164.16796875 C87.27306885 164.13606445 87.27306885 164.13606445 88.96240234 164.10351562 C92.75499809 164.17039908 94.17780437 164.57304501 97.2421875 166.66796875 C97.95632813 167.13203125 98.67046875 167.59609375 99.40625 168.07421875 C104.539692 172.93557018 106.82169263 176.82971186 107.18116951 183.94017982 C107.2732719 187.89533841 107.25260197 191.84507683 107.2109375 195.80078125 C107.20922431 197.523752 107.20929419 199.24672535 107.21105957 200.96969604 C107.20941137 204.56908324 107.1908028 208.16784381 107.15917969 211.76708984 C107.11944369 216.37157472 107.11514451 220.97524252 107.12264252 225.57986641 C107.12571693 229.13332554 107.11357596 232.6866023 107.09651184 236.24001694 C107.08950186 237.93760916 107.08635487 239.63522204 107.08720398 241.33282852 C107.08539882 243.70680128 107.0639589 246.07980837 107.03710938 248.45361328 C107.04003998 249.14883087 107.04297058 249.84404846 107.04598999 250.56033325 C106.9435589 256.4535292 105.16249134 260.31360415 101.4296875 264.79296875 C96.43652709 269.00941532 92.18796067 271.2890734 85.6171875 271.16796875 C85.62606995 272.17893112 85.63495239 273.18989349 85.644104 274.23149109 C85.72555922 283.80758777 85.78532897 293.3836132 85.82443619 302.95997906 C85.84521825 307.88207748 85.87336232 312.8038939 85.91894531 317.72583008 C85.96274044 322.48506717 85.98639495 327.2440348 85.99669647 332.00345802 C86.00402791 333.8097539 86.01834267 335.61603679 86.04010773 337.42221642 C86.24592813 355.22732836 83.0892348 370.61761327 70.4296875 383.98046875 C60.3097695 393.61914065 47.70107252 399.28211222 33.66219044 399.29939651 C32.48660692 399.30323766 31.3110234 399.3070788 30.09981614 399.31103635 C28.17624875 399.30973662 28.17624875 399.30973662 26.21382141 399.30841064 C24.83054894 399.31099611 23.44727721 399.31400978 22.06400651 399.31741405 C18.26786679 399.3254659 14.47174599 399.3272726 10.67559874 399.32801151 C6.57933588 399.32986522 2.48308277 399.33741414 -1.61317444 399.34414673 C-10.56781625 399.3577175 -19.52245357 399.36375276 -28.47710395 399.36815739 C-34.07037243 399.37092183 -39.66363919 399.37515955 -45.25690651 399.37966156 C-60.7487855 399.3918524 -76.24066312 399.4021522 -91.73254681 399.40553665 C-93.21925601 399.405866 -93.21925601 399.405866 -94.73599975 399.406202 C-95.72948362 399.40642028 -96.72296749 399.40663856 -97.74655694 399.40686345 C-99.75966752 399.40730691 -101.77277809 399.40775348 -103.78588867 399.40820312 C-105.28374088 399.40853527 -105.28374088 399.40853527 -106.81185273 399.40887412 C-122.9897766 399.41282158 -139.16765542 399.43027484 -155.34556188 399.45356265 C-171.9626391 399.4772892 -188.57969371 399.48973909 -205.19678813 399.49090457 C-214.52366485 399.49182058 -223.85048285 399.49755419 -233.17734337 399.51572418 C-241.11972596 399.53114273 -249.06203167 399.53623527 -257.00442638 399.52798608 C-261.05439667 399.52408584 -265.10421223 399.52497847 -269.15416336 399.53904343 C-272.86715494 399.55181989 -276.57987612 399.55055226 -280.29286752 399.53845271 C-282.26083058 399.53558346 -284.22879848 399.54740302 -286.19672412 399.55987477 C-301.8480223 399.47310236 -315.69605406 394.58971117 -327.12890625 383.65234375 C-334.91956092 375.06507101 -341.48613039 363.30478927 -341.51982689 351.45413494 C-341.52490143 350.50445424 -341.52997597 349.55477353 -341.53520429 348.57631463 C-341.53570205 347.53596891 -341.53619981 346.49562318 -341.53671265 345.42375183 C-341.5410949 344.31610782 -341.54547715 343.20846382 -341.5499922 342.06725484 C-341.56338595 338.341954 -341.56956048 334.61667681 -341.57568359 330.89135742 C-341.58358431 328.2254824 -341.59184839 325.5596104 -341.60046387 322.89373779 C-341.62497453 314.88192094 -341.6396157 306.87009792 -341.65252393 298.85825512 C-341.65623769 296.5934475 -341.66021079 294.32864049 -341.6642766 292.06383348 C-341.68952157 277.98665716 -341.7115654 263.90947983 -341.72400475 249.83228588 C-341.72693425 246.5721912 -341.72989594 243.31209656 -341.73291016 240.05200195 C-341.73365621 239.24176078 -341.73440226 238.43151961 -341.73517092 237.59672568 C-341.7478075 224.48969796 -341.78100788 211.38280642 -341.82271199 198.27584227 C-341.86522136 184.8047645 -341.88871038 171.33375623 -341.89392531 157.86261159 C-341.8973299 150.30502995 -341.90897149 142.74766087 -341.94202805 135.19014549 C-341.97015418 128.7493917 -341.98097343 122.30889403 -341.96983258 115.86808362 C-341.9646771 112.58705802 -341.97010497 109.30667509 -341.99229813 106.02570534 C-342.12914066 84.62030042 -339.94883424 68.17372509 -324.6953125 51.91796875 C-311.49424264 39.35501707 -295.27512941 36.0162153 -277.85595703 33.27392578 C-276.23154578 33.01113295 -274.60726659 32.74752267 -272.98310852 32.48316956 C-268.58485242 31.76965791 -264.18484499 31.06754733 -259.78443003 30.36749125 C-255.07418396 29.61606139 -250.3656758 28.85388621 -245.6569519 28.09298706 C-236.65322677 26.63968222 -227.64801416 25.19581927 -218.64222229 23.75538337 C-207.76798239 22.01563216 -196.89570767 20.26372924 -186.0234375 18.51171875 C-174.29791366 16.62250482 -162.57199278 14.73587233 -150.84429932 12.86016846 C-146.92254617 12.23275378 -143.00081268 11.60521643 -139.07910156 10.97753906 C-138.11020634 10.82247595 -137.14131112 10.66741284 -136.14305544 10.50765085 C-121.97863374 8.23946025 -107.82062937 5.93405169 -93.66583562 3.60657811 C-87.6322947 2.61565027 -81.5978137 1.63046097 -75.56332147 0.64534509 C-69.8651736 -0.28560569 -64.16870236 -1.22605318 -58.47332668 -2.17380714 C-54.96287708 -2.75557336 -51.45095605 -3.32803989 -47.93857813 -3.89803648 C-46.32873631 -4.16122929 -44.71950893 -4.42821652 -43.11101294 -4.69951296 C-12.76140582 -9.81163825 -12.76140582 -9.81163825 0 0 Z " fill="#35BA7D" transform="translate(373.3828125,59.83203125)"/>
<path d="M0 0 C5.5340403 5.17667607 10.39159146 12.07555532 10.73744202 19.88249207 C10.73522141 20.97725357 10.73300079 22.07201508 10.73071289 23.19995117 C10.73063736 24.4410112 10.73056183 25.68207123 10.73048401 26.96073914 C10.72537741 28.31497233 10.72016141 29.66920512 10.71484375 31.0234375 C10.71297833 32.4092046 10.71155501 33.79497236 10.71055603 35.18074036 C10.7067406 38.82544785 10.69691863 42.4701154 10.68585205 46.11480713 C10.675617 49.83499613 10.67105392 53.5551916 10.66601562 57.27539062 C10.65529548 64.57293486 10.63823075 71.87044621 10.6171875 79.16796875 C9.94040191 79.16682959 9.26361633 79.16569043 8.56632209 79.16451675 C-31.56667927 79.09734782 -71.69967337 79.04589153 -111.83271958 79.01477276 C-116.65410481 79.01102075 -121.47548994 79.00713777 -126.296875 79.00317383 C-127.25670523 79.0023869 -128.21653546 79.00159997 -129.20545146 79.00078919 C-144.73642548 78.98774374 -160.2673661 78.96409464 -175.79832032 78.93651036 C-191.74059113 78.9084322 -207.68284448 78.89178739 -223.625139 78.88570327 C-233.45831611 78.88159183 -243.29139881 78.86861726 -253.12454686 78.84421935 C-259.87219792 78.8283324 -266.61980035 78.82357508 -273.36746874 78.82746462 C-277.25753193 78.82938156 -281.14743042 78.82649235 -285.03746414 78.81035233 C-288.60579444 78.79565591 -292.17385071 78.7950788 -295.74219415 78.80527207 C-297.63017753 78.80712171 -299.51815814 78.79427056 -301.40609384 78.78072482 C-312.66659347 78.83943971 -322.99385517 80.13479309 -331.3828125 88.16796875 C-334.99113387 91.81656156 -337.86781766 95.16848579 -339.3828125 100.16796875 C-340.0428125 100.16796875 -340.7028125 100.16796875 -341.3828125 100.16796875 C-342.35279329 82.55742863 -338.84053536 68.31691636 -327.1328125 54.515625 C-313.59784258 40.09133815 -296.68725267 36.23852499 -277.85595703 33.27392578 C-276.23154578 33.01113295 -274.60726659 32.74752267 -272.98310852 32.48316956 C-268.58485242 31.76965791 -264.18484499 31.06754733 -259.78443003 30.36749125 C-255.07418396 29.61606139 -250.3656758 28.85388621 -245.6569519 28.09298706 C-236.65322677 26.63968222 -227.64801416 25.19581927 -218.64222229 23.75538337 C-207.76798239 22.01563216 -196.89570767 20.26372924 -186.0234375 18.51171875 C-174.29791366 16.62250482 -162.57199278 14.73587233 -150.84429932 12.86016846 C-146.92254617 12.23275378 -143.00081268 11.60521643 -139.07910156 10.97753906 C-138.11020634 10.82247595 -137.14131112 10.66741284 -136.14305544 10.50765085 C-121.97863374 8.23946025 -107.82062937 5.93405169 -93.66583562 3.60657811 C-87.6322947 2.61565027 -81.5978137 1.63046097 -75.56332147 0.64534509 C-69.8651736 -0.28560569 -64.16870236 -1.22605318 -58.47332668 -2.17380714 C-54.96287708 -2.75557336 -51.45095605 -3.32803989 -47.93857813 -3.89803648 C-46.32873631 -4.16122929 -44.71950893 -4.42821652 -43.11101294 -4.69951296 C-12.76140582 -9.81163825 -12.76140582 -9.81163825 0 0 Z " fill="#389873" transform="translate(373.3828125,59.83203125)"/>
<path d="M0 0 C1.49409974 -0.00927337 2.98819481 -0.01932494 4.48228455 -0.03009033 C8.51734959 -0.05616621 12.55234836 -0.06919252 16.58748436 -0.07811165 C19.11282092 -0.08399696 21.63813982 -0.09221059 24.16346741 -0.10112 C32.0779872 -0.1284154 39.99246607 -0.14777912 47.90702963 -0.15552378 C57.02005141 -0.1644928 66.13247438 -0.19964647 75.24531412 -0.25752497 C82.30801053 -0.30081573 89.37053868 -0.3209351 96.4333663 -0.32360601 C100.64405022 -0.32569671 104.85416913 -0.33739608 109.06471252 -0.37324524 C113.02458166 -0.40631089 116.98346393 -0.41046963 120.94342232 -0.39296722 C122.39097815 -0.39143231 123.83858827 -0.4000354 125.28600883 -0.41988373 C134.1851759 -0.53470202 140.38350018 0.13926276 147.07617188 6.32226562 C152.90384213 12.24820995 152.72104699 19.07532067 152.71960449 26.96707153 C152.70401916 28.62974983 152.68743426 30.29241901 152.66992188 31.95507812 C152.66820869 33.67804887 152.66827857 35.40102223 152.67004395 37.12399292 C152.66839575 40.72338012 152.64978717 44.32214069 152.61816406 47.92138672 C152.57842807 52.5258716 152.57412888 57.12953939 152.58162689 61.73416328 C152.5847013 65.28762242 152.57256033 68.84089917 152.55549622 72.39431381 C152.54848623 74.09190604 152.54533925 75.78951891 152.54618835 77.4871254 C152.54438319 79.86109816 152.52294328 82.23410525 152.49609375 84.60791016 C152.49902435 85.30312775 152.50195496 85.99834534 152.50497437 86.71463013 C152.40254328 92.60782607 150.62147571 96.46790102 146.88867188 100.94726562 C138.8232865 107.7580355 131.7282338 107.90340295 121.52880859 107.83984375 C120.06267097 107.8452715 118.59653881 107.85239781 117.13041687 107.86108398 C113.16506388 107.87925264 109.20012925 107.87227422 105.23476934 107.85956764 C101.06797048 107.84939481 96.90120589 107.85884622 92.73440552 107.8651123 C85.73205182 107.87238115 78.72986707 107.8628262 71.72753906 107.84375 C63.66365568 107.8220337 55.60017773 107.82899735 47.53630435 107.85105562 C40.58817607 107.86929265 33.64016888 107.87172613 26.69202435 107.86130095 C22.55343383 107.85510478 18.41503283 107.85412121 14.27645493 107.8674469 C10.37743043 107.87912453 6.47892011 107.87076621 2.57995033 107.84786987 C1.16033208 107.84264337 -0.2593305 107.84399062 -1.67893028 107.85292053 C-19.53100847 107.95473747 -33.55934349 103.00758013 -46.59960938 90.80664062 C-57.72710757 78.91237365 -61.39122552 65.2779308 -61.13867188 49.36523438 C-60.61059138 35.31042122 -53.79012967 23.92977893 -43.92382812 14.32226562 C-31.01043665 2.51179727 -16.97239904 0.02470026 0 0 Z " fill="#F8B50B" transform="translate(327.923828125,223.677734375)"/>
<path d="M0 0 C5.40349706 2.29073202 8.9386898 6.99435814 11.9765625 11.8671875 C14.13602703 17.37684934 13.94420729 24.29170738 11.6796875 29.7109375 C7.55265861 36.21478931 2.37097443 40.18596614 -5.1875 42 C-11.52341804 42.61315336 -15.94683078 41.71394533 -21.1875 38 C-25.37991272 34.00236752 -28.86146903 29.90015921 -29.5234375 24.01171875 C-29.60519607 17.05406413 -29.5788903 12.51738781 -25.1875 7 C-17.70761079 -0.46253447 -10.47941181 -3.16629402 0 0 Z " fill="#F8F3EE" transform="translate(328.1875,257)"/>
</svg>
